{
    "asset" : {
        "generator" : "Khronos glTF Blender I/O v3.3.32",
        "version" : "2.0"
    },
    "scene" : 0,
    "scenes" : [
        {
            "name" : "Scene",
            "nodes" : [
                0
            ]
        }
    ],
    "nodes" : [
        {
            "mesh" : 0,
            "name" : "path24",
            "scale" : [
                61.846290588378906,
                61.846290588378906,
                61.846290588378906
            ],
            "translation" : [
                -6.420531272888184,
                0,
                9.02125358581543
            ]
        }
    ],
    "materials" : [
        {
            "doubleSided" : true,
            "name" : "SVGMat.001",
            "pbrMetallicRoughness" : {
                "baseColorFactor" : [
                    1,
                    1,
                    1,
                    1
                ],
                "metallicFactor" : 0,
                "roughnessFactor" : 1
            }
        }
    ],
    "meshes" : [
        {
            "name" : "path24",
            "primitives" : [
                {
                    "attributes" : {
                        "POSITION" : 0,
                        "NORMAL" : 1,
                        "TEXCOORD_0" : 2
                    },
                    "indices" : 3,
                    "material" : 0
                }
            ]
        }
    ],
    "accessors" : [
        {
            "bufferView" : 0,
            "componentType" : 5126,
            "count" : 48173,
            "max" : [
                0.14742574095726013,
                0.07358991354703903,
                -0.10048756003379822
            ],
            "min" : [
                0.048533111810684204,
                0,
                -0.21374988555908203
            ],
            "type" : "VEC3"
        },
        {
            "bufferView" : 1,
            "componentType" : 5126,
            "count" : 48173,
            "type" : "VEC3"
        },
        {
            "bufferView" : 2,
            "componentType" : 5126,
            "count" : 48173,
            "type" : "VEC2"
        },
        {
            "bufferView" : 3,
            "componentType" : 5123,
            "count" : 77220,
            "type" : "SCALAR"
        }
    ],
    "bufferViews" : [
        {
            "buffer" : 0,
            "byteLength" : 578076,
            "byteOffset" : 0,
            "target" : 34962
        },
        {
            "buffer" : 0,
            "byteLength" : 578076,
            "byteOffset" : 578076,
            "target" : 34962
        },
        {
            "buffer" : 0,
            "byteLength" : 385384,
            "byteOffset" : 1156152,
            "target" : 34962
        },
        {
            "buffer" : 0,
            "byteLength" : 154440,
            "byteOffset" : 1541536,
            "target" : 34963
        }
    ],
    "buffers" : [
        {
            "byteLength" : 1695976,
            "uri" : "hand.bin"
        }
    ]
}
